<svg xmlns="http://www.w3.org/2000/svg" width="32" height="32" viewBox="0 0 32 32">
  <polygon points="8,10 9.5,14 14,14 10.5,17 12,21 8,18.5 4,21 5.5,17 2,14 6.5,14" fill="#EF9F27" stroke="#854F0B" stroke-width="0.8"/>
  <polygon points="16,8 17.5,12 22,12 18.5,15 20,19 16,16.5 12,19 13.5,15 10,12 14.5,12" fill="#EF9F27" stroke="#854F0B" stroke-width="0.8"/>
  <polygon points="24,10 25.5,14 30,14 26.5,17 28,21 24,18.5 20,21 21.5,17 18,14 22.5,14" fill="#EF9F27" stroke="#854F0B" stroke-width="0.8"/>
</svg>
