<svg xmlns="http://www.w3.org/2000/svg" viewBox="0 0 600 150" preserveAspectRatio="xMidYMid slice">
  <defs>
    <linearGradient id="bg" x1="0" y1="0" x2="1" y2="1">
      <stop offset="0%" stop-color="#2a1f08"/>
      <stop offset="50%" stop-color="#181004"/>
      <stop offset="100%" stop-color="#0a0602"/>
    </linearGradient>
    <radialGradient id="goldglow" cx="0.5" cy="0.5" r="0.7">
      <stop offset="0%" stop-color="#fde68a" stop-opacity="0.22"/>
      <stop offset="100%" stop-color="#fde68a" stop-opacity="0"/>
    </radialGradient>
  </defs>
  <rect width="600" height="150" fill="url(#bg)"/>
  <rect width="600" height="150" fill="url(#goldglow)"/>
  <!-- Crown silhouette, center-right, bold but in low opacity -->
  <g fill="#fde68a" opacity="0.14" transform="translate(380, 30)">
    <path d="M 20 70 L 20 40 L 35 55 L 50 25 L 65 55 L 80 40 L 95 55 L 110 25 L 125 55 L 140 40 L 140 70 Z"/>
    <rect x="18" y="72" width="124" height="6"/>
    <circle cx="35" cy="55" r="3" fill="#fcd34d" opacity="0.6"/>
    <circle cx="80" cy="40" r="3" fill="#fcd34d" opacity="0.6"/>
    <circle cx="125" cy="55" r="3" fill="#fcd34d" opacity="0.6"/>
  </g>
  <!-- Gold flecks scattered -->
  <g fill="#fde68a" opacity="0.35">
    <circle cx="60"  cy="35"  r="1.2"/>
    <circle cx="110" cy="105" r="0.9"/>
    <circle cx="180" cy="55"  r="1.4"/>
    <circle cx="250" cy="115" r="0.8"/>
    <circle cx="320" cy="40"  r="1.1"/>
    <circle cx="540" cy="100" r="1.3"/>
    <circle cx="80"  cy="120" r="0.7"/>
    <circle cx="220" cy="25"  r="1.0"/>
  </g>
</svg>
