<svg xmlns="http://www.w3.org/2000/svg" xmlns:xlink="http://www.w3.org/1999/xlink" viewBox="0 0 1200 630" preserveAspectRatio="xMidYMid slice">
  <defs>
    <linearGradient id="og-sky" x1="50%" y1="0%" x2="50%" y2="100%">
      <stop offset="0%"   stop-color="#050812" />
      <stop offset="45%"  stop-color="#0e1826" />
      <stop offset="90%"  stop-color="#152740" />
      <stop offset="100%" stop-color="#19283e" />
    </linearGradient>
    <linearGradient id="og-sea" x1="50%" y1="0%" x2="50%" y2="100%">
      <stop offset="0%"   stop-color="#152740" />
      <stop offset="100%" stop-color="#050812" />
    </linearGradient>
    <radialGradient id="og-moonglow" cx="82%" cy="22%" r="30%">
      <stop offset="0%"   stop-color="#e8c48a" stop-opacity="0.32" />
      <stop offset="60%"  stop-color="#c9a066" stop-opacity="0.06" />
      <stop offset="100%" stop-color="#c9a066" stop-opacity="0" />
    </radialGradient>
    <radialGradient id="og-leftHaze" cx="6%" cy="60%" r="42%">
      <stop offset="0%"   stop-color="#a33d3d" stop-opacity="0.16" />
      <stop offset="100%" stop-color="#8b2e2e" stop-opacity="0" />
    </radialGradient>
    <linearGradient id="og-horizonGlow" x1="0%" y1="0%" x2="0%" y2="100%">
      <stop offset="0%"   stop-color="#e8c48a" stop-opacity="0" />
      <stop offset="50%"  stop-color="#c9a066" stop-opacity="0.22" />
      <stop offset="100%" stop-color="#c9a066" stop-opacity="0" />
    </linearGradient>
    <filter id="og-turb">
      <feTurbulence type="fractalNoise" baseFrequency="0.018" numOctaves="2" seed="7" />
      <feDisplacementMap in="SourceGraphic" scale="20" />
    </filter>
    <filter id="og-glow" x="-20%" y="-20%" width="140%" height="140%">
      <feGaussianBlur in="SourceGraphic" stdDeviation="6" />
      <feColorMatrix type="matrix" values="1 0 0 0 0  0 1 0 0 0  0 0 1 0 0  0 0 0 0.5 0"/>
    </filter>
  </defs>

  <!-- Background: sky + sea, horizon at y=390 -->
  <rect width="1200" height="390" fill="url(#og-sky)" />
  <rect y="390" width="1200" height="240" fill="url(#og-sea)" />
  <rect width="1200" height="630" fill="url(#og-moonglow)" />
  <rect width="1200" height="630" fill="url(#og-leftHaze)" />

  <!-- Moon -->
  <circle cx="984" cy="160" r="46" fill="#f2d4a1" opacity="0.82" />
  <circle cx="984" cy="160" r="46" fill="none" stroke="#e8c48a" stroke-width="1" opacity="0.3" />

  <!-- Storm clouds -->
  <g filter="url(#og-turb)" opacity="0.90">
    <ellipse cx="220"  cy="110" rx="360" ry="80"  fill="#0a101c" />
    <ellipse cx="720"  cy="60"  rx="520" ry="66"  fill="#0a101c" />
    <ellipse cx="1080" cy="100" rx="320" ry="80"  fill="#0a101c" />
    <ellipse cx="540"  cy="200" rx="340" ry="50"  fill="#15233a" opacity="0.55" />
    <ellipse cx="960"  cy="220" rx="380" ry="58"  fill="#15233a" opacity="0.45" />
  </g>

  <!-- Horizon -->
  <rect x="0" y="382" width="1200" height="14" fill="url(#og-horizonGlow)" />
  <line x1="0" y1="390" x2="1200" y2="390" stroke="#c9a066" stroke-width="1" opacity="0.42" />

  <!-- Distant galleons sit on the horizon, at the far edges so they don't fight the wordmark -->
  <g transform="translate(60 338)" fill="#050812" opacity="0.75">
    <rect x="0" y="38" width="86" height="12" />
    <polygon points="6,38 80,38 74,48 12,48" />
    <rect x="18" y="-4" width="1.8" height="42" />
    <rect x="42" y="-8" width="2.2" height="46" />
    <rect x="66" y="-4" width="1.8" height="42" />
    <path d="M8 2 Q20 8 32 2 L32 30 Q20 32 8 30 Z" />
    <path d="M32 -2 Q46 2 60 -2 L60 32 Q46 34 32 32 Z" />
    <path d="M60 2 Q70 8 82 2 L82 30 Q70 32 60 30 Z" />
    <line x1="42" y1="-8" x2="54" y2="-3" stroke="#a33d3d" stroke-width="1.2" />
  </g>

  <g transform="translate(1060 358)" fill="#050812" opacity="0.68">
    <rect x="0" y="26" width="72" height="10" />
    <polygon points="4,26 68,26 62,34 10,34" />
    <rect x="18" y="-2" width="1.6" height="28" />
    <rect x="40" y="-6" width="2" height="32" />
    <path d="M8 2 Q18 6 28 2 L28 24 Q18 26 8 24 Z" />
    <path d="M28 -2 Q40 2 54 -2 L54 24 Q40 26 28 24 Z" />
  </g>

  <!-- Waves -->
  <g stroke="#c9a066" fill="none" stroke-linecap="round">
    <path d="M 0 440 Q 160 432 320 440 T 640 440 T 960 440 T 1280 440" stroke-width="1.6" opacity="0.48" />
    <path d="M 0 478 Q 140 470 280 478 T 560 478 T 840 478 T 1120 478 T 1280 478" stroke-width="1.1" opacity="0.36" />
    <path d="M 0 518 Q 120 512 240 518 T 480 518 T 720 518 T 960 518 T 1200 518" stroke-width="0.9" opacity="0.26" />
    <path d="M 0 558 Q 100 554 200 558 T 400 558 T 600 558 T 800 558 T 1000 558 T 1200 558" stroke-width="0.8" opacity="0.20" />
  </g>

  <!-- Compass watermark -->
  <g transform="translate(1090 540)" opacity="0.20">
    <circle cx="0" cy="0" r="66" fill="none" stroke="#e8c48a" stroke-width="1.2" />
    <circle cx="0" cy="0" r="56" fill="none" stroke="#e8c48a" stroke-width="0.7" />
    <path d="M0 -66 L4 0 L0 2 L-4 0 Z" fill="#e8c48a" />
    <path d="M0 66 L4 0 L0 -2 L-4 0 Z" fill="#e8c48a" opacity="0.6" />
    <path d="M66 0 L0 4 L-2 0 L0 -4 Z" fill="#e8c48a" opacity="0.8" />
    <path d="M-66 0 L0 4 L2 0 L0 -4 Z" fill="#e8c48a" opacity="0.8" />
    <circle cx="0" cy="0" r="4" fill="#0e1826" stroke="#e8c48a" stroke-width="0.8" />
  </g>

  <!-- Top brass strip -->
  <rect x="0" y="0" width="1200" height="3" fill="#c9a066" opacity="0.65" />

  <!-- Kicker: serif text renders fine in fallback -->
  <text x="80" y="120"
        font-family="Georgia, 'Times New Roman', serif"
        font-size="22" letter-spacing="6"
        fill="#c9a066" font-weight="700">
    A KRAKEN EXPRESS VOYAGE · UNOFFICIAL COMMUNITY HUB
  </text>

  <!-- OFFICIAL WINDROSE WORDMARK (sail + "Windrose" in their actual font) -->
  <!-- Source: 1819x456. Scaled to width=760 → height≈191 -->
  <image xlink:href="windrose-wordmark-official.png"
         x="60" y="155"
         width="760" height="191"
         preserveAspectRatio="xMidYMid meet" />

  <!-- Tagline under the wordmark -->
  <text x="80" y="384"
        font-family="Georgia, 'Times New Roman', serif"
        font-size="28" letter-spacing="1"
        fill="#e4d4b0" font-style="italic">
    Build. Sail. Survive the storm.
  </text>

  <!-- Value pills — shortened labels + consistent 260w with generous gaps so nothing overflows -->
  <g font-family="Georgia, 'Times New Roman', serif" font-weight="700" font-size="18" letter-spacing="2">
    <g transform="translate(80 416)">
      <rect x="0" y="0" width="260" height="44" rx="4" fill="#19283e" opacity="0.82" stroke="#c9a066" stroke-width="1.3" />
      <text x="130" y="29" fill="#e8c48a" text-anchor="middle">LIVE ON STEAM</text>
    </g>
    <g transform="translate(360 416)">
      <rect x="0" y="0" width="260" height="44" rx="4" fill="#19283e" opacity="0.82" stroke="#c9a066" stroke-width="1.3" />
      <text x="130" y="29" fill="#e8c48a" text-anchor="middle">DEV DISPATCHES</text>
    </g>
    <g transform="translate(640 416)">
      <rect x="0" y="0" width="260" height="44" rx="4" fill="#19283e" opacity="0.82" stroke="#c9a066" stroke-width="1.3" />
      <text x="130" y="29" fill="#e8c48a" text-anchor="middle">CREW FINDER</text>
    </g>
  </g>

  <!-- Bottom-left: weered wordmark + url -->
  <g transform="translate(80 528)">
    <text font-family="Georgia, 'Times New Roman', serif" font-size="44" letter-spacing="3" fill="#e8c48a" font-weight="700">weered</text>
    <text y="38" font-family="Georgia, 'Times New Roman', serif" font-size="18" letter-spacing="3" fill="#a89775" font-weight="600">
      weered.ca/lobby/windrose
    </text>
  </g>

  <!-- Bottom-right: official sail mark (square PNG 396x417, rendered small) -->
  <image xlink:href="windrose-logo-official.png"
         x="980" y="490"
         width="96" height="96"
         preserveAspectRatio="xMidYMid meet" />
</svg>
