<svg xmlns="http://www.w3.org/2000/svg" viewBox="0 0 200 200" width="200" height="200" role="img" aria-label="Airbus A320 silhouette">
<g fill="#B8CDDD">
<path d="M100 94.96 L22.0 134.95999999999998 L22.0 143.95999999999998 L100 128.95999999999998 Z"/>
<path d="M100 156.0 L72.0 172.0 L72.0 178.0 L100 172.0 Z"/>
<rect x="48.5" y="101.0" width="15" height="30" rx="6.8181818181818175"/>
<path d="M100 94.96 L178.0 134.95999999999998 L178.0 143.95999999999998 L100 128.95999999999998 Z"/>
<path d="M100 156.0 L128.0 172.0 L128.0 178.0 L100 172.0 Z"/>
<rect x="136.5" y="101.0" width="15" height="30" rx="6.8181818181818175"/>
<path d="M100 16.0 C111.9 24.0 107.0 36.0 107.0 50.0 L107.0 158.0 C107.0 175.0 102.5 183.0 100 184.0 C97.5 183.0 93.0 175.0 93.0 158.0 L93.0 50.0 C93.0 36.0 88.1 24.0 100 16.0 Z"/>
<rect x="98.2" y="134.0" width="3.6" height="32" rx="1.8"/>
</g></svg>